<?xml version="1.0" standalone="no"?>
<!DOCTYPE svg PUBLIC "-//W3C//DTD SVG 20010904//EN"
 "http://www.w3.org/TR/2001/REC-SVG-20010904/DTD/svg10.dtd">
<svg version="1.0" xmlns="http://www.w3.org/2000/svg"
 width="320.000000pt" height="320.000000pt" viewBox="0 0 320.000000 320.000000"
 preserveAspectRatio="xMidYMid meet">
<metadata>
Created by potrace 1.14, written by Peter Selinger 2001-2017
</metadata>
<g transform="translate(0.000000,320.000000) scale(0.100000,-0.100000)"
fill="#000000" stroke="none">
<path d="M1389 3185 c-634 -91 -1149 -534 -1324 -1140 -245 -848 244 -1736
1090 -1980 848 -245 1736 244 1980 1090 205 712 -102 1466 -750 1839 -142 82
-333 149 -515 182 -120 22 -363 27 -481 9z m361 -845 c209 -33 403 -132 555
-285 115 -114 193 -240 244 -391 l21 -62 -24 -68 c-64 -188 -174 -347 -323
-465 -509 -405 -1256 -227 -1533 364 -63 133 -66 159 -34 247 124 346 410 590
767 655 89 16 240 18 327 5z"/>
<path d="M1425 2164 c-206 -46 -406 -182 -521 -356 -49 -74 -94 -174 -94 -211
0 -12 16 -55 35 -95 108 -226 295 -386 532 -454 103 -30 332 -32 433 -5 229
63 430 229 536 444 54 109 54 117 -6 238 -102 203 -306 370 -525 430 -87 24
-301 29 -390 9z m245 -244 l0 -140 -70 0 -70 0 0 140 0 140 70 0 70 0 0 -140z
m-36 -234 c24 -10 37 -24 45 -49 25 -76 -37 -141 -110 -115 -69 24 -73 134 -5
164 39 16 31 16 70 0z m-214 -86 l0 -70 -140 0 -140 0 0 70 0 70 140 0 140 0
0 -70z m640 0 l0 -70 -140 0 -140 0 0 70 0 70 140 0 140 0 0 -70z m-390 -320
l0 -140 -70 0 -70 0 0 140 0 140 70 0 70 0 0 -140z"/>
</g>
</svg>
